<svg width="244" height="65" viewBox="0 0 244 65" fill="" xmlns="http://www.w3.org/2000/svg">
<rect x="9.47432" y="3.3418" width="37.4827" height="51.6428" rx="4.16474" transform="rotate(-4.63313 9.47432 3.3418)" fill="#0777A1"/>
<path fill-rule="evenodd" clip-rule="evenodd" d="M8.26062 7.99693L3.29328 9.57327C1.32762 10.1971 0.239821 12.2962 0.863605 14.2619L11.4793 47.7138L8.26062 7.99693ZM14.1606 53.2954C15.0614 53.8695 16.2008 54.0549 17.2986 53.7066L18.0766 53.4597L16.1361 53.6169C15.4366 53.6736 14.7635 53.554 14.1606 53.2954Z" fill="#0777A1"/>
<path fill-rule="evenodd" clip-rule="evenodd" d="M48.8813 4.57649L53.2887 5.31703C55.3225 5.65874 56.7606 7.59422 56.5008 9.64005L52.1 44.2942L48.8813 4.57649ZM50.6805 50.0017C49.8932 50.833 48.7191 51.2642 47.4803 51.056L47.0468 50.9832L48.4544 50.8691C49.2971 50.8008 50.0608 50.4862 50.6805 50.0017Z" fill="#0777A1"/>
<circle cx="44.8185" cy="58.8386" r="3.98903" fill="#0777A1"/>
<circle cx="23.8761" cy="60.8333" r="3.98903" fill="#0777A1"/>
</svg>
