<svg width="260" height="280" viewBox="0 0 260 280" fill="none" xmlns="http://www.w3.org/2000/svg">
<rect x="40.9175" y="14.4292" width="161.879" height="223.033" rx="22.7457" transform="rotate(-4.63313 40.9175 14.4292)" fill="#0777A2"/>
<path fill-rule="evenodd" clip-rule="evenodd" d="M35.6755 34.5342L18.2902 40.0513C7.55479 43.4581 1.61376 54.9227 5.02056 65.6581L49.576 206.06L35.6755 34.5342ZM61.9857 228.624C66.6344 231.457 72.3875 232.425 77.9999 230.882L74.4313 231.172C69.9572 231.534 65.6807 230.576 61.9857 228.624Z" fill="#0777A2"/>
<path fill-rule="evenodd" clip-rule="evenodd" d="M211.107 19.7615L225.933 22.2527C237.041 24.1189 244.895 34.6895 243.476 45.8628L225.008 191.293L211.107 19.7615ZM204.56 220.069C210.389 219.97 215.684 217.316 219.219 213.018C215.504 216.956 210.378 219.587 204.56 220.069Z" fill="#0777A2"/>
<ellipse cx="193.561" cy="254.107" rx="17.2277" ry="17.2277" fill="#0777A2"/>
<circle cx="103.115" cy="262.721" r="17.2277" fill="#0777A2"/>
</svg>
