<svg width="56" height="60" viewBox="0 0 56 60" fill="none" xmlns="http://www.w3.org/2000/svg">
<rect x="8.76965" y="3.09253" width="34.6946" height="47.8014" rx="3.30313" transform="rotate(-4.63313 8.76965 3.09253)" fill="#0777A2"/>
<path fill-rule="evenodd" clip-rule="evenodd" d="M7.64615 7.4014L2.57671 9.01014C1.01771 9.50488 0.154958 11.1698 0.649692 12.7288L10.6254 44.164L7.64615 7.4014ZM12.9609 49.4745C13.6886 49.9765 14.6324 50.1488 15.5403 49.8607L16.7325 49.4823L14.3858 49.6725C13.8853 49.7131 13.4019 49.6398 12.9609 49.4745Z" fill="#0777A2"/>
<path fill-rule="evenodd" clip-rule="evenodd" d="M45.2453 4.23525L49.8128 5.00268C51.4259 5.2737 52.5664 6.80877 52.3604 8.43135L48.2246 40.9988L45.2453 4.23525ZM47.0067 46.4688C46.3824 47.1506 45.436 47.5074 44.4365 47.3395L43.5472 47.19L45.4002 47.0399C45.9982 46.9914 46.546 46.7866 47.0067 46.4688Z" fill="#0777A2"/>
<circle cx="41.4848" cy="54.4613" r="3.69231" fill="#0777A2"/>
<ellipse cx="22.1001" cy="56.3075" rx="3.69231" ry="3.69231" fill="#0777A2"/>
</svg>
