<?xml version="1.0" standalone="no"?>
<!DOCTYPE svg PUBLIC "-//W3C//DTD SVG 20010904//EN"
 "http://www.w3.org/TR/2001/REC-SVG-20010904/DTD/svg10.dtd">
<svg version="1.0" xmlns="http://www.w3.org/2000/svg"
 width="560.000000pt" height="560.000000pt" viewBox="0 0 560.000000 560.000000"
 preserveAspectRatio="xMidYMid meet">
<metadata>
Created by potrace 1.14, written by Peter Selinger 2001-2017
</metadata>
<g transform="translate(0.000000,560.000000) scale(0.100000,-0.100000)"
fill="#000000" stroke="none">
<path d="M3726 5533 c-2 -2 -27 -5 -57 -8 -61 -4 -146 -11 -264 -21 -44 -3
-98 -8 -120 -9 -22 -2 -76 -6 -120 -9 -44 -4 -107 -9 -140 -12 -33 -2 -80 -6
-105 -9 -25 -2 -88 -7 -140 -11 -102 -7 -145 -11 -145 -13 0 -1 -38 -4 -85 -6
-47 -3 -105 -7 -130 -10 -25 -2 -81 -7 -125 -10 -44 -3 -98 -8 -120 -10 -22
-2 -80 -7 -130 -10 -49 -3 -106 -8 -125 -10 -69 -8 -216 -19 -267 -19 -29 -1
-53 -3 -53 -6 0 -3 -28 -6 -63 -8 -237 -10 -395 -121 -463 -324 -22 -68 -22
-180 1 -413 3 -27 7 -88 10 -135 3 -47 7 -101 10 -120 2 -19 7 -75 11 -125 8
-109 11 -142 18 -220 3 -33 8 -96 11 -140 3 -44 8 -100 10 -125 3 -25 7 -83
10 -130 2 -47 5 -85 6 -85 3 0 14 -138 24 -285 3 -36 7 -92 10 -125 3 -33 7
-81 9 -107 7 -87 18 -223 22 -263 2 -22 6 -74 9 -115 3 -41 7 -95 10 -120 2
-25 6 -79 9 -120 9 -117 19 -239 31 -375 6 -65 13 -155 20 -250 2 -33 7 -89
10 -125 3 -36 8 -94 10 -130 5 -72 13 -164 21 -225 11 -94 54 -183 122 -254
21 -23 36 -41 33 -41 -3 0 30 -18 74 -40 121 -61 161 -65 415 -45 115 9 220
17 255 21 22 2 76 6 120 9 44 3 100 8 125 10 25 3 77 7 115 10 39 3 95 7 125
10 30 3 91 8 135 11 142 9 179 12 235 18 30 3 87 8 125 11 138 10 201 15 255
21 30 3 84 7 120 9 36 3 90 7 120 10 30 2 84 7 120 10 36 3 88 7 115 10 28 3
88 7 134 10 155 10 246 44 329 121 26 24 52 44 59 44 6 0 15 4 18 10 4 6 -1 7
-12 3 -16 -6 -17 -5 -3 13 8 10 18 21 21 24 3 3 18 36 35 75 27 64 29 79 28
185 -1 111 -8 229 -19 317 -5 38 -8 71 -20 243 -2 30 -7 84 -10 120 -3 36 -7
90 -10 120 -2 30 -7 89 -10 130 -4 41 -8 98 -10 125 -2 28 -6 75 -9 105 -3 30
-8 93 -12 140 -13 181 -24 318 -29 371 -3 24 -7 78 -10 119 -3 41 -7 100 -10
130 -3 30 -7 89 -10 130 -3 41 -7 86 -10 100 -2 14 -7 75 -10 135 -3 61 -8
117 -10 125 -2 8 -7 58 -10 110 -3 52 -7 111 -9 130 -3 29 -12 132 -22 265 -2
29 -10 127 -18 230 -3 28 -7 88 -10 135 -4 47 -8 101 -10 120 -3 19 -7 71 -11
115 -13 176 -68 285 -191 376 -29 21 -55 39 -58 39 -3 0 -17 5 -33 12 -15 6
-31 12 -35 13 -5 2 -9 3 -10 5 -13 10 -223 22 -232 13z"/>
<path d="M4426 5167 c2 -17 6 -70 9 -117 3 -47 7 -101 9 -120 2 -19 7 -78 11
-130 4 -52 9 -115 11 -140 9 -114 14 -169 19 -225 3 -33 7 -89 10 -125 6 -84
14 -180 20 -255 3 -33 8 -91 10 -130 3 -38 7 -95 10 -125 3 -30 7 -80 10 -110
2 -30 7 -84 10 -120 3 -36 8 -94 10 -130 2 -36 6 -87 9 -115 8 -80 19 -213 31
-373 3 -51 8 -110 10 -130 2 -20 7 -73 10 -117 8 -115 14 -180 15 -180 0 0 3
-34 5 -75 2 -41 7 -97 10 -125 3 -27 8 -84 10 -125 3 -41 7 -93 10 -115 5 -53
18 -223 19 -257 2 -48 13 -20 21 49 4 38 8 75 10 83 1 8 5 42 9 75 4 33 9 76
12 95 2 19 7 53 9 75 2 22 7 56 9 75 5 33 14 107 21 160 8 66 17 137 20 160 2
14 7 50 10 80 3 30 8 66 10 80 2 14 7 50 10 80 4 30 9 63 10 72 2 9 6 41 10
70 3 29 8 69 10 88 3 19 7 55 10 80 3 25 7 56 9 70 2 14 9 70 15 125 7 55 14
111 16 125 13 83 17 119 20 155 2 22 5 54 8 70 5 29 11 73 22 165 3 25 7 61
10 80 2 19 9 71 15 115 5 44 12 98 15 120 3 22 7 60 10 85 3 25 8 61 11 80 3
19 7 56 9 83 2 26 6 60 9 75 3 15 8 46 11 69 3 23 8 57 10 75 6 39 7 147 2
168 -43 182 -182 319 -352 346 -27 4 -55 8 -62 10 -6 1 -29 5 -50 8 -21 3 -49
8 -63 11 -14 3 -46 8 -71 10 l-47 5 4 -33z"/>
<path d="M805 4875 c-55 -18 -134 -42 -175 -55 -192 -59 -294 -154 -336 -314
-17 -64 -10 -178 14 -243 11 -29 19 -53 17 -53 -2 0 3 -17 11 -37 9 -20 18
-46 20 -57 2 -11 20 -70 40 -130 20 -61 37 -115 38 -121 1 -5 28 -91 60 -190
32 -99 59 -184 61 -190 1 -5 5 -17 8 -25 3 -8 31 -96 62 -195 92 -295 185
-587 200 -630 7 -22 36 -114 65 -205 28 -91 59 -187 68 -215 9 -27 17 -52 17
-55 1 -3 4 -12 7 -20 9 -23 90 -281 93 -294 1 -6 5 -18 8 -26 8 -22 51 -153
53 -165 1 -5 14 -44 28 -85 l25 -75 -4 55 c-11 143 -16 209 -20 255 -3 28 -7
86 -10 130 -3 44 -7 98 -10 120 -2 22 -7 76 -11 120 -3 44 -8 100 -10 125 -2
25 -6 77 -9 115 -10 134 -16 210 -21 259 -2 27 -6 83 -9 124 -3 42 -7 92 -9
111 -3 20 -8 74 -11 121 -3 47 -8 108 -10 135 -3 28 -7 84 -10 125 -3 41 -7
93 -10 115 -2 22 -7 76 -10 120 -3 44 -7 103 -10 130 -3 28 -8 84 -10 125 -3
41 -7 91 -9 110 -3 19 -7 78 -11 130 -3 52 -8 111 -10 130 -3 31 -9 107 -20
245 -2 22 -6 78 -9 125 -4 47 -9 103 -11 125 -2 22 -7 79 -10 128 -6 85 -11
127 -17 132 -2 1 -48 -12 -103 -30z"/>
<path d="M4037 864 c-1 -2 -16 -5 -33 -8 -36 -7 -100 -32 -121 -49 -48 -38
-101 -98 -120 -137 -23 -48 -42 -134 -36 -166 1 -10 4 -30 5 -44 0 -14 14 -52
29 -85 98 -211 365 -266 543 -111 20 17 36 35 36 39 0 4 9 17 20 29 31 34 54
116 52 194 -2 174 -129 311 -307 333 -36 4 -66 6 -68 5z"/>
<path d="M2150 670 c-78 -29 -118 -59 -169 -130 -125 -173 -53 -422 147 -513
62 -27 200 -30 251 -4 19 9 38 17 43 17 10 0 16 5 76 56 53 46 101 143 106
216 13 169 -86 314 -249 366 -47 15 -155 11 -205 -8z"/>
</g>
</svg>
